2.mot
version=1
nRows=31
nColumns=37
inDegrees=yes
endheader
time	ground_force_vx	ground_force_vy	ground_force_vz	ground_force_px	ground_force_py	ground_force_pz	1_ground_force_vx	1_ground_force_vy	1_ground_force_vz	1_ground_force_px	1_ground_force_py	1_ground_force_pz	2_ground_force_vx	2_ground_force_vy	2_ground_force_vz	2_ground_force_px	2_ground_force_py	2_ground_force_pz	3_ground_force_vx	3_ground_force_vy	3_ground_force_vz	3_ground_force_px	3_ground_force_py	3_ground_force_pz	ground_torque_x	ground_torque_y	ground_torque_z	1_ground_torque_x	1_ground_torque_y	1_ground_torque_z	2_ground_torque_x	2_ground_torque_y	2_ground_torque_z	3_ground_torque_x	3_ground_torque_y	3_ground_torque_z
2.544218	10.326883	357.448800	-20.605671	0.212866	0.000000	-0.512689	1.442753	341.651419	26.263695	0.203916	0.000000	-0.126065	3.596873	33.386571	-3.153802	0.919182	0.000000	-0.215609	0.054952	1.660313	-0.669744	0.000000	0.000000	0.000000	0.000000	-3.764642	0.000000	0.000000	2.253810	0.000000	0.000000	-0.066742	0.000000	0.000000	0.000000	0.000000
2.551020	10.011112	357.395553	-20.854847	0.212873	0.000000	-0.512528	0.714117	342.592420	26.296186	0.203884	0.000000	-0.126065	3.595774	31.562268	-3.150185	0.918994	0.000000	-0.215648	-0.106405	2.386208	-0.823942	0.000000	0.000000	0.000000	0.000000	-3.714021	0.000000	0.000000	2.274109	0.000000	0.000000	-0.094376	0.000000	0.000000	0.000000	0.000000
2.557823	9.669673	357.329835	-20.994841	0.212799	0.000000	-0.512401	0.100386	343.288349	25.928382	0.203846	0.000000	-0.126073	3.811163	32.218905	-3.226005	0.918797	0.000000	-0.215688	-0.069871	1.860784	-0.766820	0.000000	0.000000	0.000000	0.000000	-3.622503	0.000000	0.000000	2.258018	0.000000	0.000000	-0.157011	0.000000	0.000000	0.000000	0.000000
2.564626	9.164464	357.836421	-20.970474	0.212660	0.000000	-0.512307	-0.383569	342.532953	25.831278	0.203803	0.000000	-0.126086	3.651558	33.043076	-3.030018	0.918598	0.000000	-0.215725	-0.046501	0.852714	-0.713929	0.000000	0.000000	0.000000	0.000000	-3.545760	0.000000	0.000000	2.267981	0.000000	0.000000	-0.147139	0.000000	0.000000	0.000000	0.000000
2.571429	8.664557	358.898086	-20.799023	0.212470	0.000000	-0.512244	-0.827313	341.802248	25.809646	0.203758	0.000000	-0.126101	3.692121	32.283923	-2.930491	0.918402	0.000000	-0.215758	0.034840	1.314924	-0.829705	0.000000	0.000000	0.000000	0.000000	-3.525610	0.000000	0.000000	2.247830	0.000000	0.000000	-0.127145	0.000000	0.000000	0.000000	0.000000
2.578231	8.117743	359.646266	-20.586425	0.212242	0.000000	-0.512212	-1.259085	341.455428	25.696517	0.203711	0.000000	-0.126118	3.850082	31.522997	-2.824835	0.918213	0.000000	-0.215786	0.085210	1.307186	-0.657346	0.000000	0.000000	0.000000	0.000000	-3.496838	0.000000	0.000000	2.168347	0.000000	0.000000	-0.109370	0.000000	0.000000	0.000000	0.000000
2.585034	7.407824	359.141416	-20.576551	0.211989	0.000000	-0.512212	-1.475050	341.058266	25.495800	0.203663	0.000000	-0.126133	3.470170	31.454309	-2.752462	0.918032	0.000000	-0.215810	-0.095367	0.360813	-0.443457	0.000000	0.000000	0.000000	0.000000	-3.494238	0.000000	0.000000	2.059160	0.000000	0.000000	-0.077171	0.000000	0.000000	0.000000	0.000000
2.591837	6.780504	358.646043	-20.636523	0.211719	0.000000	-0.512243	-1.382006	340.530436	25.291172	0.203611	0.000000	-0.126148	3.486942	32.664064	-3.032605	0.917859	0.000000	-0.215834	-0.031073	0.599582	-0.528404	0.000000	0.000000	0.000000	0.000000	-3.514790	0.000000	0.000000	1.978383	0.000000	0.000000	-0.100983	0.000000	0.000000	0.000000	0.000000
2.598639	6.513787	358.554626	-20.583168	0.211439	0.000000	-0.512307	-1.198093	338.945129	25.472958	0.203555	0.000000	-0.126162	3.587165	31.162486	-2.888693	0.917692	0.000000	-0.215860	0.245358	0.195441	-0.571751	0.000000	0.000000	0.000000	0.000000	-3.486091	0.000000	0.000000	2.040210	0.000000	0.000000	-0.161811	0.000000	0.000000	0.000000	0.000000
2.605442	6.379403	357.364258	-20.365999	0.211153	0.000000	-0.512404	-0.972539	336.896058	25.615283	0.203493	0.000000	-0.126177	3.186020	28.061017	-2.481731	0.917526	0.000000	-0.215891	0.188750	0.028081	-0.472830	0.000000	0.000000	0.000000	0.000000	-3.433529	0.000000	0.000000	2.077170	0.000000	0.000000	-0.192150	0.000000	0.000000	0.000000	0.000000
2.612245	6.068460	357.258739	-20.224959	0.210863	0.000000	-0.512534	-0.909577	335.517044	25.462814	0.203422	0.000000	-0.126193	3.397859	29.108213	-2.741511	0.917355	0.000000	-0.215933	0.123868	1.074574	-0.473730	0.000000	0.000000	0.000000	0.000000	-3.412156	0.000000	0.000000	1.964136	0.000000	0.000000	-0.153778	0.000000	0.000000	0.000000	0.000000
2.619048	5.812113	359.050840	-20.609147	0.210570	0.000000	-0.512697	-0.855024	335.111017	25.385203	0.203340	0.000000	-0.126211	4.053418	32.472924	-3.343139	0.917171	0.000000	-0.215986	0.169377	1.419043	-0.659342	0.000000	0.000000	0.000000	0.000000	-3.412954	0.000000	0.000000	1.890416	0.000000	0.000000	-0.087093	0.000000	0.000000	0.000000	0.000000
2.625850	5.653578	359.725688	-20.998549	0.210272	0.000000	-0.512891	-0.760243	334.819920	25.425474	0.203246	0.000000	-0.126235	4.073281	34.214912	-3.589077	0.916968	0.000000	-0.216054	0.150070	2.069771	-0.782955	0.000000	0.000000	0.000000	0.000000	-3.432066	0.000000	0.000000	1.856675	0.000000	0.000000	-0.068010	0.000000	0.000000	0.000000	0.000000
2.632653	5.537042	359.385546	-20.972950	0.209965	0.000000	-0.513114	-0.761612	334.230577	25.350192	0.203138	0.000000	-0.126264	3.691801	33.043491	-3.380514	0.916740	0.000000	-0.216135	0.050001	2.992856	-0.726685	0.000000	0.000000	0.000000	0.000000	-3.439342	0.000000	0.000000	1.812548	0.000000	0.000000	-0.076847	0.000000	0.000000	0.000000	0.000000
2.639456	5.397872	360.102512	-20.975978	0.209648	0.000000	-0.513363	-0.866430	334.702988	25.133316	0.203015	0.000000	-0.126302	3.674169	33.028205	-3.439400	0.916484	0.000000	-0.216230	0.165430	2.463354	-0.575207	0.000000	0.000000	0.000000	0.000000	-3.410611	0.000000	0.000000	1.837105	0.000000	0.000000	-0.073557	0.000000	0.000000	0.000000	0.000000
2.646259	4.946758	361.721458	-21.231721	0.209315	0.000000	-0.513634	-1.252939	334.705050	24.986422	0.202879	0.000000	-0.126349	4.021935	35.097345	-3.544254	0.916203	0.000000	-0.216336	0.253413	1.720768	-0.605484	0.000000	0.000000	0.000000	0.000000	-3.422123	0.000000	0.000000	1.904711	0.000000	0.000000	-0.046148	0.000000	0.000000	0.000000	0.000000
2.653061	4.202983	362.804880	-21.351250	0.208963	0.000000	-0.513924	-1.660675	334.635286	24.904477	0.202732	0.000000	-0.126406	4.069048	33.967355	-3.136606	0.915900	0.000000	-0.216447	0.117398	1.323990	-0.779597	0.000000	0.000000	0.000000	0.000000	-3.456581	0.000000	0.000000	1.912526	0.000000	0.000000	-0.046792	0.000000	0.000000	0.000000	0.000000
2.659864	3.680349	363.272298	-21.384309	0.208590	0.000000	-0.514228	-1.760460	335.874545	24.806423	0.202576	0.000000	-0.126473	3.840541	32.828292	-2.951592	0.915587	0.000000	-0.216560	0.147980	0.894760	-0.804335	0.000000	0.000000	0.000000	0.000000	-3.430834	0.000000	0.000000	1.928403	0.000000	0.000000	-0.055068	0.000000	0.000000	0.000000	0.000000
2.666667	3.431429	363.908639	-21.757078	0.208194	0.000000	-0.514539	-1.775844	336.046253	24.645943	0.202414	0.000000	-0.126552	3.712828	33.423473	-2.999543	0.915276	0.000000	-0.216668	0.343855	1.382605	-0.591102	0.000000	0.000000	0.000000	0.000000	-3.402615	0.000000	0.000000	1.973753	0.000000	0.000000	-0.058774	0.000000	0.000000	0.000000	0.000000
2.673469	3.269796	364.970891	-22.322915	0.207773	0.000000	-0.514854	-1.792157	335.322810	24.546575	0.202250	0.000000	-0.126642	3.689481	32.089136	-2.984602	0.914985	0.000000	-0.216764	0.437871	2.379609	-0.625996	0.000000	0.000000	0.000000	0.000000	-3.386876	0.000000	0.000000	1.989208	0.000000	0.000000	-0.104074	0.000000	0.000000	0.000000	0.000000
2.680272	3.115268	364.964234	-22.936071	0.207329	0.000000	-0.515166	-1.816889	334.941520	24.612292	0.202089	0.000000	-0.126742	3.625869	31.690623	-3.181360	0.914731	0.000000	-0.216842	0.177225	1.839341	-0.815869	0.000000	0.000000	0.000000	0.000000	-3.414946	0.000000	0.000000	1.993040	0.000000	0.000000	-0.117771	0.000000	0.000000	0.000000	0.000000
2.687075	2.992370	363.453274	-23.267706	0.206862	0.000000	-0.515472	-1.893781	334.412703	24.659320	0.201934	0.000000	-0.126851	3.428070	31.648761	-3.019339	0.914534	0.000000	-0.216898	0.042932	0.821290	-0.691765	0.000000	0.000000	0.000000	0.000000	-3.408192	0.000000	0.000000	1.981921	0.000000	0.000000	-0.118888	0.000000	0.000000	0.000000	0.000000
2.693878	3.074264	363.411328	-23.397730	0.206377	0.000000	-0.515766	-1.731972	333.589438	24.628274	0.201789	0.000000	-0.126968	3.620198	30.251954	-2.748083	0.914409	0.000000	-0.216929	0.280011	0.793927	-0.487378	0.000000	0.000000	0.000000	0.000000	-3.359833	0.000000	0.000000	1.980351	0.000000	0.000000	-0.152500	0.000000	0.000000	0.000000	0.000000
2.700680	3.199924	363.823087	-23.437121	0.205877	0.000000	-0.516046	-1.384545	333.491733	24.339635	0.201657	0.000000	-0.127091	3.966728	29.656538	-2.995716	0.914370	0.000000	-0.216933	0.371087	0.574801	-0.385452	0.000000	0.000000	0.000000	0.000000	-3.364748	0.000000	0.000000	1.988798	0.000000	0.000000	-0.138304	0.000000	0.000000	0.000000	0.000000
2.707483	3.131556	363.201832	-23.304972	0.205369	0.000000	-0.516307	-0.995897	333.213994	24.238591	0.201542	0.000000	-0.127217	3.781935	29.661917	-2.945664	0.914425	0.000000	-0.216913	0.172364	0.235109	-0.401193	0.000000	0.000000	0.000000	0.000000	-3.362193	0.000000	0.000000	2.030150	0.000000	0.000000	-0.127112	0.000000	0.000000	0.000000	0.000000
2.714286	2.796928	363.780770	-23.364315	0.204859	0.000000	-0.516548	-0.658729	332.892822	24.356835	0.201445	0.000000	-0.127345	3.615017	30.542038	-2.831440	0.914576	0.000000	-0.216873	0.036347	0.435359	-0.449568	0.000000	0.000000	0.000000	0.000000	-3.362264	0.000000	0.000000	2.056368	0.000000	0.000000	-0.145788	0.000000	0.000000	0.000000	0.000000
2.721088	2.355277	364.368280	-23.832355	0.204354	0.000000	-0.516766	-0.433833	332.347590	24.136019	0.201367	0.000000	-0.127473	3.735543	31.691348	-2.921523	0.914821	0.000000	-0.216817	0.051843	0.858282	-0.561308	0.000000	0.000000	0.000000	0.000000	-3.429534	0.000000	0.000000	2.043227	0.000000	0.000000	-0.156258	0.000000	0.000000	0.000000	0.000000
2.727891	2.069190	363.907505	-24.571794	0.203861	0.000000	-0.516961	-0.019682	331.051930	23.777366	0.201310	0.000000	-0.127598	3.603454	31.786588	-2.811498	0.915150	0.000000	-0.216753	-0.021799	0.934686	-0.775528	0.000000	0.000000	0.000000	0.000000	-3.494213	0.000000	0.000000	2.065813	0.000000	0.000000	-0.102964	0.000000	0.000000	0.000000	0.000000
2.734694	1.799321	363.998988	-25.285220	0.203386	0.000000	-0.517133	0.511971	332.322712	23.561245	0.201272	0.000000	-0.127719	3.613840	32.319830	-2.866572	0.915548	0.000000	-0.216687	-0.089178	0.763031	-0.704038	0.000000	0.000000	0.000000	0.000000	-3.520951	0.000000	0.000000	2.099219	0.000000	0.000000	-0.035088	0.000000	0.000000	0.000000	0.000000
2.741497	1.483729	364.710829	-25.833471	0.202936	0.000000	-0.517282	0.812071	334.156286	23.537996	0.201252	0.000000	-0.127835	3.746039	32.884557	-3.082072	0.915995	0.000000	-0.216624	0.050193	0.702941	-0.510963	0.000000	0.000000	0.000000	0.000000	-3.532497	0.000000	0.000000	2.094214	0.000000	0.000000	-0.077895	0.000000	0.000000	0.000000	0.000000
2.748299	1.117525	365.467922	-26.191445	0.202518	0.000000	-0.517409	0.994691	333.172400	23.531150	0.201250	0.000000	-0.127944	3.834821	32.045417	-3.165641	0.916468	0.000000	-0.216567	0.206607	1.129985	-0.710406	0.000000	0.000000	0.000000	0.000000	-3.514314	0.000000	0.000000	2.041326	0.000000	0.000000	-0.148795	0.000000	0.000000	0.000000	0.000000
